<?xml version="1.0" encoding="utf-8"?>
<!-- Generator: Adobe Illustrator 26.2.1, SVG Export Plug-In . SVG Version: 6.00 Build 0)  -->
<svg version="1.1" id="Ebene_1" xmlns="http://www.w3.org/2000/svg" xmlns:xlink="http://www.w3.org/1999/xlink" x="0px" y="0px"
	 viewBox="0 0 256 256" style="enable-background:new 0 0 256 256;" xml:space="preserve">
<style type="text/css">
	.st0{fill:none;}
	.st1{fill:#FFFFFF;}
</style>
<g id="Ebene_2_00000077314425877175287870000013378464441595401368_">
	<g id="Ebene_1-2">
		<rect class="st0" width="256" height="256"/>
		<path class="st1" d="M72.2,55c39.9,0,72.2,32.6,72.2,72.7s-32.3,72.7-72.2,72.7S0,167.8,0,127.7S32.3,55,72.2,55z M187.5,59.3
			c19.9,0,36.1,30.6,36.1,68.4l0,0c0,37.8-16.2,68.4-36.1,68.4s-36.1-30.6-36.1-68.4S167.6,59.3,187.5,59.3z M243.3,66.4
			c7,0,12.7,27.4,12.7,61.3s-5.7,61.3-12.7,61.3s-12.7-27.5-12.7-61.3S236.3,66.4,243.3,66.4z"/>
	</g>
</g>
</svg>
