<svg xmlns="http://www.w3.org/2000/svg" viewBox="0 0 256 256"><defs><style>.cls-1{fill:none;}</style></defs><g id="Ebene_2" data-name="Ebene 2"><g id="Ebene_1-2" data-name="Ebene 1"><rect class="cls-1" width="256" height="256"/><path d="M72.2,55c39.88,0,72.2,32.55,72.2,72.7s-32.33,72.69-72.2,72.69S0,167.84,0,127.7,32.33,55,72.2,55Zm115.3,4.26c19.94,0,36.1,30.64,36.1,68.44h0c0,37.79-16.16,68.43-36.1,68.43s-36.1-30.64-36.1-68.43S167.56,59.26,187.5,59.26Zm55.8,7.13c7,0,12.7,27.45,12.7,61.31S250.32,189,243.3,189s-12.69-27.46-12.69-61.31S236.29,66.39,243.3,66.39Z"/></g></g></svg>