<?xml version="1.0" encoding="utf-8"?>
<!-- Generator: Adobe Illustrator 26.2.1, SVG Export Plug-In . SVG Version: 6.00 Build 0)  -->
<svg version="1.1" id="Ebene_1" xmlns="http://www.w3.org/2000/svg" xmlns:xlink="http://www.w3.org/1999/xlink" x="0px" y="0px"
	 viewBox="0 0 24.3 24" style="enable-background:new 0 0 24.3 24;" xml:space="preserve">
<style type="text/css">
	.st0{fill:#FFFFFF;}
</style>
<g id="Ebene_2_00000165196675123605451610000001150634839604158345_">
	<g id="Ebene_1-2">
		<path class="st0" d="M8.1,0L0,4.6v10.6C0,20,4,24,8.9,24h0.1c1.6,0,3.1-0.4,4.5-1.2h-0.1l6.6-3.7c2.7-1.4,4.4-4.1,4.4-7.1V1
			l-1.6-1l-6.6,3.7v11.6c0,0.5-0.1,1-0.2,1.4l0,0c-0.1,0.6-0.3,1.2-0.6,1.7v0c-0.9-0.1-1.7-0.4-2.4-0.8l0,0c-0.5-0.3-1-0.6-1.4-1
			l0,0c-0.3-0.3-0.6-0.6-0.8-0.9l0,0c-0.2-0.3-0.4-0.7-0.6-1.1l0,0c-0.2-0.4-0.3-0.8-0.4-1.1v-0.1c-0.1-0.4-0.1-0.8-0.1-1.1V12l0,0
			V0.9L8.1,0z M11.8,21.8c-0.4,0.2-0.9,0.3-1.3,0.4l0,0c-0.5,0.1-0.9,0.1-1.4,0.1c-0.5,0-1-0.1-1.5-0.2l0,0c-0.5-0.1-1-0.2-1.4-0.4
			l0,0c-0.4-0.2-0.8-0.4-1.2-0.6l0,0c-0.8-0.5-1.5-1.1-2-1.9l0,0c-0.2-0.4-0.5-0.8-0.6-1.2l0,0c-0.2-0.4-0.3-0.9-0.4-1.3v0
			c-0.1-0.4-0.1-0.8-0.1-1.3v-0.2l0,0V5.5l6.1-3.7V12c0.1,3.8,2.8,7.1,6.5,7.8l0,0c-0.1,0.2-0.3,0.3-0.4,0.5l0,0
			c-0.3,0.3-0.6,0.6-1,0.9l0,0C12.7,21.4,12.3,21.6,11.8,21.8L11.8,21.8L11.8,21.8z M22.4,13.3c-0.1,0.4-0.2,0.8-0.4,1.2l0,0
			c-0.4,0.9-1,1.7-1.8,2.3l0,0c-0.8,0.7-1.8,1.2-2.9,1.5l0,0c0.4-1,0.6-2,0.6-3.1l0,0V4.6l4.6-2.8v10.3C22.5,12.6,22.4,13,22.4,13.3
			L22.4,13.3L22.4,13.3z"/>
	</g>
</g>
</svg>
