<svg xmlns="http://www.w3.org/2000/svg" viewBox="0 0 24.28 24"><g id="Ebene_2" data-name="Ebene 2"><g id="Ebene_1-2" data-name="Ebene 1"><path d="M8.1,0,0,4.59V15.17A8.85,8.85,0,0,0,8.85,24h.06a9,9,0,0,0,4.48-1.19l-.05,0L19.9,19.1A8,8,0,0,0,24.28,12V1L22.67,0,16.09,3.71V15.28a6.09,6.09,0,0,1-.16,1.43v0a8.68,8.68,0,0,1-.6,1.74l0-.05a6.37,6.37,0,0,1-2.44-.84l0,0a7.41,7.41,0,0,1-1.39-1h0a5.83,5.83,0,0,1-.78-.93v0a4.93,4.93,0,0,1-.58-1.06l0,0a8.18,8.18,0,0,1-.37-1.15v-.05a5.7,5.7,0,0,1-.11-1.13V12h0V.92L8.1,0Zm3.74,21.83a7,7,0,0,1-1.32.41h0a6.9,6.9,0,0,1-1.42.14,7.51,7.51,0,0,1-1.51-.16h0a7.37,7.37,0,0,1-1.42-.44l0,0A7.91,7.91,0,0,1,5,21.13l0,0A7.17,7.17,0,0,1,3,19.22l0,0A7.35,7.35,0,0,1,2.37,18V18a6.61,6.61,0,0,1-.42-1.3v-.05a8.15,8.15,0,0,1-.1-1.26v-.2h0V5.51L7.9,1.84V12a8.15,8.15,0,0,0,6.48,7.83h0a5,5,0,0,1-.4.49h0a6.74,6.74,0,0,1-1,.87l0,0a5.52,5.52,0,0,1-1.05.63l0,0Zm10.52-8.5a6.22,6.22,0,0,1-.4,1.24l0,0a7.38,7.38,0,0,1-1.76,2.31h0a6.14,6.14,0,0,1-2.9,1.45h0a8.44,8.44,0,0,0,.62-3.07h0V4.64l4.56-2.76V12.17a6.58,6.58,0,0,1-.11,1.19v0Z"/></g></g></svg>