<?xml version="1.0" encoding="utf-8"?>
<!-- Generator: Adobe Illustrator 26.2.1, SVG Export Plug-In . SVG Version: 6.00 Build 0)  -->
<svg version="1.1" id="Capa_1" xmlns="http://www.w3.org/2000/svg" xmlns:xlink="http://www.w3.org/1999/xlink" x="0px" y="0px"
	 viewBox="0 0 107.4 107.4" style="enable-background:new 0 0 107.4 107.4;" xml:space="preserve">
<style type="text/css">
	.st0{fill:#FFFFFF;}
</style>
<g>
	<path class="st0" d="M107.4,53.7C107.4,24.1,83.3,0,53.7,0c-5,0-9.8,0.7-14.4,2l-0.1-0.1c0,0,0,0.1-0.1,0.1C16.6,8.4,0,29.1,0,53.7
		c0,29.6,24.1,53.7,53.7,53.7c5,0,9.8-0.7,14.4-2l0.1,0.1c0,0,0-0.1,0.1-0.1C90.8,98.9,107.4,78.2,107.4,53.7z M5.3,56.3h19.3
		c0.2,5.8,0.8,11.4,2,16.9H9.4C7,68,5.7,62.3,5.3,56.3z M102,51.1H82.7c-0.2-5.8-0.8-11.4-2-16.9H98C100.3,39.4,101.7,45.1,102,51.1
		z M77.5,51.1H56.3V34.1h19.1C76.6,39.6,77.3,45.3,77.5,51.1z M56.3,28.9V5.3c2.5,0.1,5,0.4,7.4,0.9c4.5,7,8,14.6,10.3,22.7H56.3z
		 M51.1,28.9H33c2.1-7.9,5.4-15.4,9.6-22.4c2.8-0.7,5.6-1.1,8.5-1.2V28.9z M51.1,34.1v16.9H29.8c0.1-5.8,0.7-11.4,1.9-16.9H51.1z
		 M24.6,51.1H5.3c0.3-6,1.7-11.7,4-16.9h17C25.3,39.7,24.7,45.3,24.6,51.1z M29.9,56.3h21.2v16.9H32C30.8,67.7,30.1,62.1,29.9,56.3z
		 M51.1,78.4V102c-2.5-0.1-5-0.4-7.4-0.9c-4.5-7-8-14.6-10.3-22.7C33.4,78.4,51.1,78.4,51.1,78.4z M56.3,78.4h18.1
		c-2.1,7.9-5.4,15.4-9.6,22.4c-2.8,0.7-5.6,1.1-8.5,1.2L56.3,78.4L56.3,78.4z M56.3,73.2V56.3h21.2c-0.1,5.8-0.7,11.4-1.9,16.9H56.3
		z M82.7,56.3H102c-0.3,6-1.7,11.7-4,16.9H81C82,67.7,82.6,62,82.7,56.3z M95.3,28.9H79.4c-1.9-7.1-4.7-14-8.2-20.4
		C81.3,12.5,89.8,19.7,95.3,28.9z M35.2,8.9c-3.3,6.3-5.8,13-7.6,20H12.1C17.4,20,25.5,12.9,35.2,8.9z M12.1,78.4H28
		c1.9,7.1,4.7,14,8.2,20.4C26.1,94.9,17.6,87.7,12.1,78.4z M72.1,98.5c3.3-6.3,5.8-13,7.6-20h15.5C89.9,87.4,81.9,94.5,72.1,98.5z"
		/>
</g>
</svg>
