<?xml version="1.0" encoding="utf-8"?>
<!-- Generator: Adobe Illustrator 26.3.1, SVG Export Plug-In . SVG Version: 6.00 Build 0)  -->
<svg version="1.1" id="Layer_1" xmlns="http://www.w3.org/2000/svg" xmlns:xlink="http://www.w3.org/1999/xlink" x="0px" y="0px"
	 viewBox="0 0 32 32" style="enable-background:new 0 0 32 32;" xml:space="preserve">
<style type="text/css">
	.st0{fill:#9D9D9C;}
</style>
<rect x="13.7" y="13.9" transform="matrix(0.9482 -0.3176 0.3176 0.9482 -4.2752 5.9033)" class="st0" width="4.5" height="4.3"/>
<rect x="13.7" y="13.9" transform="matrix(0.9482 -0.3176 0.3176 0.9482 -4.2752 5.9033)" class="st0" width="4.5" height="4.3"/>
<path class="st0" d="M30.7,11.6C27.4,0.6,22.6-2,11.6,1.3S-2,9.4,1.3,20.4S9.4,34,20.4,30.7S34,22.6,30.7,11.6z M25.1,18.7L23,19.4
	l0.7,2.1c0.3,0.9-0.2,1.8-1,2.1c-0.2,0.1-0.4,0.1-0.6,0.1c-0.7,0-1.3-0.5-1.5-1.1l-0.7-2.1l-4.3,1.4l0.7,2.1c0.3,0.9-0.2,1.8-1,2.1
	c-0.2,0.1-0.4,0.1-0.6,0.1c-0.7,0-1.3-0.5-1.5-1.1L12.5,23l-2.1,0.7c-0.2,0.1-0.4,0.1-0.6,0.1c-0.7,0-1.3-0.5-1.5-1.1
	c-0.3-0.9,0.2-1.8,1-2.1l2.1-0.7L10,15.7l-2,0.7c-0.2,0.1-0.4,0.1-0.6,0.1c-0.7,0-1.3-0.5-1.5-1.1c-0.3-0.9,0.2-1.8,1-2.1L9,12.6
	l-0.7-2.1C8,9.6,8.4,8.6,9.3,8.3c0.9-0.3,1.8,0.2,2.1,1l0.7,2.1l4.3-1.4l-0.7-2.1c-0.3-0.9,0.2-1.8,1-2.1c0.9-0.3,1.8,0.2,2.1,1
	L19.5,9l2.1-0.7c0.9-0.3,1.8,0.2,2.1,1c0.3,0.9-0.2,1.8-1,2.1l-2.1,0.7l1.4,4.1l2.1-0.7c0.9-0.3,1.8,0.2,2.1,1
	C26.4,17.5,26,18.4,25.1,18.7z"/>
</svg>
